<svg width="18" height="18" viewBox="0 0 18 18" fill="none" xmlns="http://www.w3.org/2000/svg">
<path d="M0 14.625V9H3.375V14.625H0ZM16.875 3.375V6.75H13.5V3.375H16.875ZM12.375 0V6.75H10.125V14.625H9V0H12.375ZM4.5 14.625V3.375H7.875V14.625H4.5ZM11.25 7.875H18V18L14.625 15.75L11.25 18V7.875ZM16.875 9H12.375V15.8994C12.7559 15.6475 13.1309 15.3984 13.5 15.1523C13.8691 14.9062 14.2441 14.6543 14.625 14.3965C15.0059 14.6426 15.3809 14.8916 15.75 15.1436C16.1191 15.3955 16.4941 15.6475 16.875 15.8994V9Z" fill="white"/>
</svg>
