<svg width="21" height="21" viewBox="0 0 21 21" fill="none" xmlns="http://www.w3.org/2000/svg">
<path d="M7 4.375H5.25C4.78587 4.375 4.34075 4.55937 4.01256 4.88756C3.68437 5.21575 3.5 5.66087 3.5 6.125V16.625C3.5 17.0891 3.68437 17.5342 4.01256 17.8624C4.34075 18.1906 4.78587 18.375 5.25 18.375H10.2349M15.75 10.5V6.125C15.75 5.66087 15.5656 5.21575 15.2374 4.88756C14.9092 4.55937 14.4641 4.375 14 4.375H12.25" stroke="white" stroke-width="1.5" stroke-linecap="round" stroke-linejoin="round"/>
<path d="M7 9.625H10.5M7 13.125H9.625M16.1875 17.0625L18.375 19.25M7 4.375C7 3.91087 7.18437 3.46575 7.51256 3.13756C7.84075 2.80937 8.28587 2.625 8.75 2.625H10.5C10.9641 2.625 11.4092 2.80937 11.7374 3.13756C12.0656 3.46575 12.25 3.91087 12.25 4.375C12.25 4.83913 12.0656 5.28425 11.7374 5.61244C11.4092 5.94063 10.9641 6.125 10.5 6.125H8.75C8.28587 6.125 7.84075 5.94063 7.51256 5.61244C7.18437 5.28425 7 4.83913 7 4.375ZM12.25 15.3125C12.25 15.8927 12.4805 16.4491 12.8907 16.8593C13.3009 17.2695 13.8573 17.5 14.4375 17.5C15.0177 17.5 15.5741 17.2695 15.9843 16.8593C16.3945 16.4491 16.625 15.8927 16.625 15.3125C16.625 14.7323 16.3945 14.1759 15.9843 13.7657C15.5741 13.3555 15.0177 13.125 14.4375 13.125C13.8573 13.125 13.3009 13.3555 12.8907 13.7657C12.4805 14.1759 12.25 14.7323 12.25 15.3125Z" stroke="white" stroke-width="1.5" stroke-linecap="round" stroke-linejoin="round"/>
</svg>
