<svg width="18" height="19" viewBox="0 0 18 19" fill="none" xmlns="http://www.w3.org/2000/svg">
<path d="M5 3.375H3.25C2.78587 3.375 2.34075 3.55937 2.01256 3.88756C1.68437 4.21575 1.5 4.66087 1.5 5.125V15.625C1.5 16.0891 1.68437 16.5342 2.01256 16.8624C2.34075 17.1906 2.78587 17.375 3.25 17.375H8.23487M13.75 9.5V5.125C13.75 4.66087 13.5656 4.21575 13.2374 3.88756C12.9092 3.55937 12.4641 3.375 12 3.375H10.25" stroke="#242220" stroke-width="1.5" stroke-linecap="round" stroke-linejoin="round"/>
<path d="M5 8.625H8.5M5 12.125H7.625M14.1875 16.0625L16.375 18.25M5 3.375C5 2.91087 5.18437 2.46575 5.51256 2.13756C5.84075 1.80937 6.28587 1.625 6.75 1.625H8.5C8.96413 1.625 9.40925 1.80937 9.73744 2.13756C10.0656 2.46575 10.25 2.91087 10.25 3.375C10.25 3.83913 10.0656 4.28425 9.73744 4.61244C9.40925 4.94063 8.96413 5.125 8.5 5.125H6.75C6.28587 5.125 5.84075 4.94063 5.51256 4.61244C5.18437 4.28425 5 3.83913 5 3.375ZM10.25 14.3125C10.25 14.8927 10.4805 15.4491 10.8907 15.8593C11.3009 16.2695 11.8573 16.5 12.4375 16.5C13.0177 16.5 13.5741 16.2695 13.9843 15.8593C14.3945 15.4491 14.625 14.8927 14.625 14.3125C14.625 13.7323 14.3945 13.1759 13.9843 12.7657C13.5741 12.3555 13.0177 12.125 12.4375 12.125C11.8573 12.125 11.3009 12.3555 10.8907 12.7657C10.4805 13.1759 10.25 13.7323 10.25 14.3125Z" stroke="#242220" stroke-width="1.5" stroke-linecap="round" stroke-linejoin="round"/>
</svg>
