<svg width="25" height="25" viewBox="0 0 25 25" fill="none" xmlns="http://www.w3.org/2000/svg">
<path d="M2.89019 7.06515C2.89019 6.3197 2.89064 5.80009 2.91966 5.39385C2.94817 4.99482 3.00144 4.76314 3.07849 4.58656C3.30616 4.06473 3.72265 3.64823 4.24448 3.42056C4.42107 3.34351 4.65275 3.29024 5.05178 3.26173C5.45802 3.23271 5.97763 3.23226 6.72308 3.23226C7.46853 3.23226 7.98815 3.23271 8.39438 3.26173C8.79341 3.29024 9.02509 3.34351 9.20168 3.42056C9.72351 3.64823 10.14 4.06473 10.3677 4.58656C10.4447 4.76314 10.498 4.99482 10.5265 5.39385C10.5555 5.80009 10.556 6.3197 10.556 7.06515C10.556 7.81061 10.5555 8.33022 10.5265 8.73646C10.498 9.13548 10.4447 9.36717 10.3677 9.54375C10.14 10.0656 9.72351 10.4821 9.20168 10.7097C9.02509 10.7868 8.79341 10.8401 8.39438 10.8686C7.98815 10.8976 7.46853 10.898 6.72308 10.898C5.97763 10.898 5.45802 10.8976 5.05178 10.8686C4.65275 10.8401 4.42107 10.7868 4.24448 10.7097C3.72265 10.4821 3.30616 10.0656 3.07849 9.54375C3.00144 9.36717 2.94817 9.13548 2.91966 8.73646C2.89064 8.33022 2.89019 7.81061 2.89019 7.06515Z" stroke="white" stroke-width="1.5045"/>
<path d="M2.89019 17.9549C2.89019 17.2094 2.89064 16.6898 2.91966 16.2836C2.94817 15.8845 3.00144 15.6529 3.07849 15.4763C3.30616 14.9544 3.72265 14.5379 4.24448 14.3103C4.42107 14.2332 4.65275 14.1799 5.05178 14.1514C5.45802 14.1224 5.97763 14.122 6.72308 14.122C7.46853 14.122 7.98815 14.1224 8.39438 14.1514C8.79341 14.1799 9.02509 14.2332 9.20168 14.3103C9.72351 14.5379 10.14 14.9544 10.3677 15.4763C10.4447 15.6529 10.498 15.8845 10.5265 16.2836C10.5555 16.6898 10.556 17.2094 10.556 17.9549C10.556 18.7003 10.5555 19.2199 10.5265 19.6262C10.498 20.0252 10.4447 20.2569 10.3677 20.4335C10.14 20.9553 9.72351 21.3718 9.20168 21.5995C9.02509 21.6765 8.79341 21.7298 8.39438 21.7583C7.98815 21.7873 7.46853 21.7878 6.72308 21.7878C5.97763 21.7878 5.45802 21.7873 5.05178 21.7583C4.65275 21.7298 4.42107 21.6765 4.24448 21.5995C3.72265 21.3718 3.30616 20.9553 3.07849 20.4335C3.00144 20.2569 2.94817 20.0252 2.91966 19.6262C2.89064 19.2199 2.89019 18.7003 2.89019 17.9549Z" stroke="white" stroke-width="1.5045"/>
<path d="M13.7801 7.06515C13.7801 6.3197 13.7805 5.80009 13.8096 5.39385C13.8381 4.99482 13.8913 4.76314 13.9684 4.58656C14.1961 4.06473 14.6125 3.64823 15.1344 3.42056C15.311 3.34351 15.5426 3.29024 15.9417 3.26173C16.3479 3.23271 16.8675 3.23226 17.613 3.23226C18.3584 3.23226 18.878 3.23271 19.2843 3.26173C19.6833 3.29024 19.915 3.34351 20.0916 3.42056C20.6134 3.64823 21.0299 4.06473 21.2576 4.58656C21.3346 4.76314 21.3879 4.99482 21.4164 5.39385C21.4454 5.80009 21.4459 6.3197 21.4459 7.06515C21.4459 7.81061 21.4454 8.33022 21.4164 8.73646C21.3879 9.13548 21.3346 9.36717 21.2576 9.54375C21.0299 10.0656 20.6134 10.4821 20.0916 10.7097C19.915 10.7868 19.6833 10.8401 19.2843 10.8686C18.878 10.8976 18.3584 10.898 17.613 10.898C16.8675 10.898 16.3479 10.8976 15.9417 10.8686C15.5426 10.8401 15.311 10.7868 15.1344 10.7097C14.6125 10.4821 14.1961 10.0656 13.9684 9.54375C13.8913 9.36717 13.8381 9.13548 13.8096 8.73646C13.7805 8.33022 13.7801 7.81061 13.7801 7.06515Z" stroke="white" stroke-width="1.5045"/>
<path d="M13.7801 17.9549C13.7801 17.2094 13.7805 16.6898 13.8096 16.2836C13.8381 15.8845 13.8913 15.6529 13.9684 15.4763C14.1961 14.9544 14.6125 14.5379 15.1344 14.3103C15.311 14.2332 15.5426 14.1799 15.9417 14.1514C16.3479 14.1224 16.8675 14.122 17.613 14.122C18.3584 14.122 18.878 14.1224 19.2843 14.1514C19.6833 14.1799 19.915 14.2332 20.0916 14.3103C20.6134 14.5379 21.0299 14.9544 21.2576 15.4763C21.3346 15.6529 21.3879 15.8845 21.4164 16.2836C21.4454 16.6898 21.4459 17.2094 21.4459 17.9549C21.4459 18.7003 21.4454 19.2199 21.4164 19.6262C21.3879 20.0252 21.3346 20.2569 21.2576 20.4335C21.0299 20.9553 20.6134 21.3718 20.0916 21.5995C19.915 21.6765 19.6833 21.7298 19.2843 21.7583C18.878 21.7873 18.3584 21.7878 17.613 21.7878C16.8675 21.7878 16.3479 21.7873 15.9417 21.7583C15.5426 21.7298 15.311 21.6765 15.1344 21.5995C14.6125 21.3718 14.1961 20.9553 13.9684 20.4335C13.8913 20.2569 13.8381 20.0252 13.8096 19.6262C13.7805 19.2199 13.7801 18.7003 13.7801 17.9549Z" stroke="white" stroke-width="1.5045"/>
</svg>
