<svg width="45" height="45" viewBox="0 0 45 45" fill="none" xmlns="http://www.w3.org/2000/svg">
<circle cx="22.4072" cy="22.4072" r="22.4072" fill="#09A5FC"/>
<path d="M14.0021 30.4022L16.2762 30.0769L30.2464 16.1087C30.378 15.9815 30.483 15.8294 30.5552 15.6613C30.6275 15.4931 30.6655 15.3122 30.6671 15.1292C30.6687 14.9462 30.6338 14.7647 30.5645 14.5953C30.4952 14.4259 30.3928 14.272 30.2634 14.1426C30.134 14.0132 29.9801 13.9108 29.8108 13.8415C29.6414 13.7722 29.4599 13.7373 29.2769 13.7389C29.0939 13.7405 28.913 13.7786 28.7449 13.8508C28.5767 13.923 28.4246 14.028 28.2975 14.1597L14.3246 28.1279L13.9993 30.4022H14.0021ZM32.1952 12.2079C32.5795 12.5919 32.8843 13.0479 33.0922 13.5498C33.3002 14.0516 33.4072 14.5896 33.4072 15.1328C33.4072 15.676 33.3002 16.214 33.0922 16.7158C32.8843 17.2177 32.5795 17.6737 32.1952 18.0577L17.9026 32.3512C17.6918 32.5627 17.4181 32.7001 17.1225 32.7426L12.5742 33.3932C12.3622 33.4237 12.1461 33.4043 11.9429 33.3366C11.7397 33.269 11.5551 33.1549 11.4037 33.0035C11.2523 32.8521 11.1382 32.6674 11.0706 32.4643C11.0029 32.2611 10.9836 32.0449 11.014 31.8329L11.6645 27.2844C11.7063 26.9891 11.8427 26.7154 12.0532 26.5042L26.3486 12.2107C27.124 11.4355 28.1755 11 29.2719 11C30.3683 11 31.4198 11.4355 32.1952 12.2107V12.2079Z" fill="white"/>
</svg>
