<svg width="21" height="21" viewBox="0 0 21 21" fill="none" xmlns="http://www.w3.org/2000/svg">
<path d="M9.8 10.5789C11.6785 10.5789 13.2 8.88316 13.2 6.78947C13.2 4.69579 11.6785 3 9.8 3C7.9215 3 6.4 4.69579 6.4 6.78947C6.4 8.88316 7.9215 10.5789 9.8 10.5789ZM9.8 4.89474C10.2509 4.89474 10.6833 5.09436 11.0021 5.44969C11.3209 5.80502 11.5 6.28696 11.5 6.78947C11.5 7.29199 11.3209 7.77392 11.0021 8.12925C10.6833 8.48459 10.2509 8.68421 9.8 8.68421C8.8565 8.68421 8.1 7.84105 8.1 6.78947C8.1 5.73789 8.865 4.89474 9.8 4.89474ZM11.5 18.1579H3V15.3158C3 12.7863 7.5305 11.5263 9.8 11.5263C10.65 11.5263 11.823 11.7063 12.9535 12.0568C12.6985 12.5874 12.5455 13.1747 12.5285 13.7905C11.6955 13.5158 10.7435 13.3263 9.8 13.3263C7.2755 13.3263 4.615 14.7095 4.615 15.3158V16.3579H11.5V18.1579ZM18.98 15.3158V13.8947C18.98 12.5684 17.79 11.5263 16.6 11.5263C15.41 11.5263 14.22 12.5684 14.22 13.8947V15.3158C13.71 15.3158 13.2 15.8842 13.2 16.4526V19.7684C13.2 20.4316 13.71 21 14.22 21H18.895C19.49 21 20 20.4316 20 19.8632V16.5474C20 15.8842 19.49 15.3158 18.98 15.3158ZM17.875 15.3158H15.325V13.8947C15.325 13.1368 15.92 12.6632 16.6 12.6632C17.28 12.6632 17.875 13.1368 17.875 13.8947V15.3158Z" fill="#242220"/>
</svg>
